<?xml version="1.0" encoding="UTF-8"?>
<!DOCTYPE svg PUBLIC "-//W3C//DTD SVG 1.1//EN" "http://www.w3.org/Graphics/SVG/1.1/DTD/svg11.dtd">
<svg version="1.1" xmlns="http://www.w3.org/2000/svg" xmlns:xlink="http://www.w3.org/1999/xlink" x="0" y="0" width="500" height="250" viewBox="0, 0, 500, 250">
  <g id="Layer_1">
    <g>
      <g>
        <path d="M48,60 L84,60 L84,96 L48,96 z" fill="#FFFFFF"/>
        <path d="M48,60 L84,60 L84,96 L48,96 z" fill-opacity="0" stroke="#000000" stroke-width="1" stroke-linecap="square"/>
      </g>
      <g>
        <text transform="matrix(1, 0, 0, 1, 66, 72)">
          <tspan x="-6.138" y="4" font-family="Arial" font-size="17" fill="#000000">A</tspan>
        </text>
        <text transform="matrix(1, 0, 0, 1, 66, 90)">
          <tspan x="-2.333" y="0" font-family="Arial" font-size="6" fill="#9E9E9E">Q</tspan>
        </text>
      </g>
    </g>
    <g>
      <g>
        <path d="M60,96 L96,96 L96,132 L60,132 z" fill="#FFFFFF"/>
        <path d="M60,96 L96,96 L96,132 L60,132 z" fill-opacity="0" stroke="#000000" stroke-width="1" stroke-linecap="square"/>
      </g>
      <g>
        <text transform="matrix(1, 0, 0, 1, 78, 108)">
          <tspan x="-10.866" y="4" font-family="Arial" font-size="17" fill="#000000">A#</tspan>
        </text>
        <text transform="matrix(1, 0, 0, 1, 78, 126)">
          <tspan x="-2.167" y="0" font-family="Arial" font-size="6" fill="#9E9E9E">A</tspan>
        </text>
      </g>
    </g>
    <g>
      <g>
        <path d="M72,132 L108,132 L108,168 L72,168 z" fill="#FFFFFF"/>
        <path d="M72,132 L108,132 L108,168 L72,168 z" fill-opacity="0" stroke="#000000" stroke-width="1" stroke-linecap="square"/>
      </g>
      <g>
        <text transform="matrix(1, 0, 0, 1, 90, 144)">
          <tspan x="-6.138" y="4" font-family="Arial" font-size="17" fill="#000000">B</tspan>
        </text>
        <text transform="matrix(1, 0, 0, 1, 90, 162)">
          <tspan x="-1.833" y="0" font-family="Arial" font-size="6" fill="#9E9E9E">Z</tspan>
        </text>
      </g>
    </g>
    <g>
      <g>
        <path d="M84,60 L120,60 L120,96 L84,96 z" fill="#FFFFFF"/>
        <path d="M84,60 L120,60 L120,96 L84,96 z" fill-opacity="0" stroke="#000000" stroke-width="1" stroke-linecap="square"/>
      </g>
      <g>
        <text transform="matrix(1, 0, 0, 1, 102, 72)">
          <tspan x="-6.138" y="4" font-family="Arial" font-size="17" fill="#000000">C</tspan>
        </text>
        <text transform="matrix(1, 0, 0, 1, 102, 90)">
          <tspan x="-2.832" y="0" font-family="Arial" font-size="6" fill="#9E9E9E">W</tspan>
        </text>
      </g>
    </g>
    <g>
      <g>
        <path d="M96,96 L132,96 L132,132 L96,132 z" fill="#FFFFFF"/>
        <path d="M96,96 L132,96 L132,132 L96,132 z" fill-opacity="0" stroke="#000000" stroke-width="1" stroke-linecap="square"/>
      </g>
      <g>
        <text transform="matrix(1, 0, 0, 1, 114, 108)">
          <tspan x="-10.866" y="4" font-family="Arial" font-size="17" fill="#000000">C#</tspan>
        </text>
        <text transform="matrix(1, 0, 0, 1, 114, 126)">
          <tspan x="-2.001" y="0" font-family="Arial" font-size="6" fill="#9E9E9E">S</tspan>
        </text>
      </g>
    </g>
    <g>
      <g>
        <path d="M108,132 L144,132 L144,168 L108,168 z" fill="#FFFFFF"/>
        <path d="M108,132 L144,132 L144,168 L108,168 z" fill-opacity="0" stroke="#000000" stroke-width="1" stroke-linecap="square"/>
      </g>
      <g>
        <text transform="matrix(1, 0, 0, 1, 126, 144)">
          <tspan x="-6.138" y="4" font-family="Arial" font-size="17" fill="#000000">D</tspan>
        </text>
        <text transform="matrix(1, 0, 0, 1, 126, 162)">
          <tspan x="-2.001" y="-0" font-family="Arial" font-size="6" fill="#9E9E9E">X</tspan>
        </text>
      </g>
    </g>
    <g>
      <g>
        <path d="M120,60 L156,60 L156,96 L120,96 z" fill="#FFFFFF"/>
        <path d="M120,60 L156,60 L156,96 L120,96 z" fill-opacity="0" stroke="#000000" stroke-width="1" stroke-linecap="square"/>
      </g>
      <g>
        <text transform="matrix(1, 0, 0, 1, 138, 72)">
          <tspan x="-10.866" y="4" font-family="Arial" font-size="17" fill="#000000">D#</tspan>
        </text>
        <text transform="matrix(1, 0, 0, 1, 138, 90)">
          <tspan x="-2.001" y="0" font-family="Arial" font-size="6" fill="#9E9E9E">E</tspan>
        </text>
      </g>
    </g>
    <g>
      <g>
        <path d="M132,96 L168,96 L168,132 L132,132 z" fill="#FFFFFF"/>
        <path d="M132,96 L168,96 L168,132 L132,132 z" fill-opacity="0" stroke="#000000" stroke-width="1" stroke-linecap="square"/>
      </g>
      <g>
        <text transform="matrix(1, 0, 0, 1, 150, 108)">
          <tspan x="-5.669" y="4" font-family="Arial" font-size="17" fill="#000000">E</tspan>
        </text>
        <text transform="matrix(1, 0, 0, 1, 150, 126)">
          <tspan x="-2.167" y="0" font-family="Arial" font-size="6" fill="#9E9E9E">D</tspan>
        </text>
      </g>
    </g>
    <g>
      <g>
        <path d="M144,132 L180,132 L180,168 L144,168 z" fill="#FFFFFF"/>
        <path d="M144,132 L180,132 L180,168 L144,168 z" fill-opacity="0" stroke="#000000" stroke-width="1" stroke-linecap="square"/>
      </g>
      <g>
        <text transform="matrix(1, 0, 0, 1, 162, 144)">
          <tspan x="-5.192" y="4" font-family="Arial" font-size="17" fill="#000000">F</tspan>
        </text>
        <text transform="matrix(1, 0, 0, 1, 162, 162)">
          <tspan x="-2.167" y="-0" font-family="Arial" font-size="6" fill="#9E9E9E">C</tspan>
        </text>
      </g>
    </g>
    <g>
      <g>
        <path d="M156,60 L192,60 L192,96 L156,96 z" fill="#FFFFFF"/>
        <path d="M156,60 L192,60 L192,96 L156,96 z" fill-opacity="0" stroke="#000000" stroke-width="1" stroke-linecap="square"/>
      </g>
      <g>
        <text transform="matrix(1, 0, 0, 1, 174, 72)">
          <tspan x="-9.919" y="4" font-family="Arial" font-size="17" fill="#000000">F#</tspan>
        </text>
        <text transform="matrix(1, 0, 0, 1, 174, 90)">
          <tspan x="-2.167" y="0" font-family="Arial" font-size="6" fill="#9E9E9E">R</tspan>
        </text>
      </g>
    </g>
    <g>
      <g>
        <path d="M168,96 L204,96 L204,132 L168,132 z" fill="#FFFFFF"/>
        <path d="M168,96 L204,96 L204,132 L168,132 z" fill-opacity="0" stroke="#000000" stroke-width="1" stroke-linecap="square"/>
      </g>
      <g>
        <text transform="matrix(1, 0, 0, 1, 186, 108)">
          <tspan x="-6.612" y="4" font-family="Arial" font-size="17" fill="#000000">G</tspan>
        </text>
        <text transform="matrix(1, 0, 0, 1, 186, 126)">
          <tspan x="-1.833" y="-0" font-family="Arial" font-size="6" fill="#9E9E9E">F</tspan>
        </text>
      </g>
    </g>
    <g>
      <g>
        <path d="M180,132 L216,132 L216,168 L180,168 z" fill="#FFFFFF"/>
        <path d="M180,132 L216,132 L216,168 L180,168 z" fill-opacity="0" stroke="#000000" stroke-width="1" stroke-linecap="square"/>
      </g>
      <g>
        <text transform="matrix(1, 0, 0, 1, 198, 144)">
          <tspan x="-11.339" y="4" font-family="Arial" font-size="17" fill="#000000">G#</tspan>
        </text>
        <text transform="matrix(1, 0, 0, 1, 198, 162)">
          <tspan x="-2.001" y="-0" font-family="Arial" font-size="6" fill="#9E9E9E">V</tspan>
        </text>
      </g>
    </g>
    <g>
      <g>
        <path d="M192,60 L228,60 L228,96 L192,96 z" fill="#FFFFFF"/>
        <path d="M192,60 L228,60 L228,96 L192,96 z" fill-opacity="0" stroke="#000000" stroke-width="1" stroke-linecap="square"/>
      </g>
      <g>
        <text transform="matrix(1, 0, 0, 1, 210, 72)">
          <tspan x="-6.138" y="4" font-family="Arial" font-size="17" fill="#000000">A</tspan>
        </text>
        <text transform="matrix(1, 0, 0, 1, 210, 90)">
          <tspan x="-1.833" y="0" font-family="Arial" font-size="6" fill="#9E9E9E">T</tspan>
        </text>
      </g>
    </g>
    <g>
      <g>
        <path d="M204,96 L240,96 L240,132 L204,132 z" fill="#FFFFFF"/>
        <path d="M204,96 L240,96 L240,132 L204,132 z" fill-opacity="0" stroke="#000000" stroke-width="1" stroke-linecap="square"/>
      </g>
      <g>
        <text transform="matrix(1, 0, 0, 1, 222, 108)">
          <tspan x="-10.866" y="4" font-family="Arial" font-size="17" fill="#000000">A#</tspan>
        </text>
        <text transform="matrix(1, 0, 0, 1, 222, 126)">
          <tspan x="-2.333" y="0" font-family="Arial" font-size="6" fill="#9E9E9E">G</tspan>
        </text>
      </g>
    </g>
    <g>
      <g>
        <path d="M216,132 L252,132 L252,168 L216,168 z" fill="#FFFFFF"/>
        <path d="M216,132 L252,132 L252,168 L216,168 z" fill-opacity="0" stroke="#000000" stroke-width="1" stroke-linecap="square"/>
      </g>
      <g>
        <text transform="matrix(1, 0, 0, 1, 234, 144)">
          <tspan x="-6.138" y="4" font-family="Arial" font-size="17" fill="#000000">B</tspan>
        </text>
        <text transform="matrix(1, 0, 0, 1, 234, 162)">
          <tspan x="-2.167" y="-0" font-family="Arial" font-size="6" fill="#9E9E9E">B</tspan>
        </text>
      </g>
    </g>
    <g>
      <g>
        <path d="M228,60 L264,60 L264,96 L228,96 z" fill="#FFFFFF"/>
        <path d="M228,60 L264,60 L264,96 L228,96 z" fill-opacity="0" stroke="#000000" stroke-width="1" stroke-linecap="square"/>
      </g>
      <g>
        <text transform="matrix(1, 0, 0, 1, 246, 72)">
          <tspan x="-6.138" y="4" font-family="Arial" font-size="17" fill="#000000">C</tspan>
        </text>
        <text transform="matrix(1, 0, 0, 1, 246, 90)">
          <tspan x="-2.001" y="-0" font-family="Arial" font-size="6" fill="#9E9E9E">Y</tspan>
        </text>
      </g>
    </g>
    <g>
      <g>
        <path d="M240,96 L276,96 L276,132 L240,132 z" fill="#FFFFFF"/>
        <path d="M240,96 L276,96 L276,132 L240,132 z" fill-opacity="0" stroke="#000000" stroke-width="1" stroke-linecap="square"/>
      </g>
      <g>
        <text transform="matrix(1, 0, 0, 1, 258, 108)">
          <tspan x="-10.866" y="4" font-family="Arial" font-size="17" fill="#000000">C#</tspan>
        </text>
        <text transform="matrix(1, 0, 0, 1, 258, 126)">
          <tspan x="-2.167" y="0" font-family="Arial" font-size="6" fill="#9E9E9E">H</tspan>
        </text>
      </g>
    </g>
    <g>
      <g>
        <path d="M252,132 L288,132 L288,168 L252,168 z" fill="#FFFFFF"/>
        <path d="M252,132 L288,132 L288,168 L252,168 z" fill-opacity="0" stroke="#000000" stroke-width="1" stroke-linecap="square"/>
      </g>
      <g>
        <text transform="matrix(1, 0, 0, 1, 270, 144)">
          <tspan x="-6.138" y="4" font-family="Arial" font-size="17" fill="#000000">D</tspan>
        </text>
        <text transform="matrix(1, 0, 0, 1, 270, 162)">
          <tspan x="-2.167" y="0" font-family="Arial" font-size="6" fill="#9E9E9E">N</tspan>
        </text>
      </g>
    </g>
    <g>
      <g>
        <path d="M264,60 L300,60 L300,96 L264,96 z" fill="#FFFFFF"/>
        <path d="M264,60 L300,60 L300,96 L264,96 z" fill-opacity="0" stroke="#000000" stroke-width="1" stroke-linecap="square"/>
      </g>
      <g>
        <text transform="matrix(1, 0, 0, 1, 282, 72)">
          <tspan x="-10.866" y="4" font-family="Arial" font-size="17" fill="#000000">D#</tspan>
        </text>
        <text transform="matrix(1, 0, 0, 1, 282, 90)">
          <tspan x="-2.167" y="0" font-family="Arial" font-size="6" fill="#9E9E9E">U</tspan>
        </text>
      </g>
    </g>
    <g>
      <g>
        <path d="M276,96 L312,96 L312,132 L276,132 z" fill="#FFFFFF"/>
        <path d="M276,96 L312,96 L312,132 L276,132 z" fill-opacity="0" stroke="#000000" stroke-width="1" stroke-linecap="square"/>
      </g>
      <g>
        <text transform="matrix(1, 0, 0, 1, 294, 108)">
          <tspan x="-5.669" y="4" font-family="Arial" font-size="17" fill="#000000">E</tspan>
        </text>
        <text transform="matrix(1, 0, 0, 1, 294, 126)">
          <tspan x="-1.668" y="-0" font-family="Arial" font-size="6" fill="#9E9E9E">J</tspan>
        </text>
      </g>
    </g>
    <g>
      <g>
        <path d="M288,132 L324,132 L324,168 L288,168 z" fill="#FFFFFF"/>
        <path d="M288,132 L324,132 L324,168 L288,168 z" fill-opacity="0" stroke="#000000" stroke-width="1" stroke-linecap="square"/>
      </g>
      <g>
        <text transform="matrix(1, 0, 0, 1, 306, 144)">
          <tspan x="-5.192" y="4" font-family="Arial" font-size="17" fill="#000000">F</tspan>
        </text>
        <text transform="matrix(1, 0, 0, 1, 306, 162)">
          <tspan x="-2.499" y="0" font-family="Arial" font-size="6" fill="#9E9E9E">M</tspan>
        </text>
      </g>
    </g>
    <g>
      <g>
        <path d="M300,60 L336,60 L336,96 L300,96 z" fill="#FFFFFF"/>
        <path d="M300,60 L336,60 L336,96 L300,96 z" fill-opacity="0" stroke="#000000" stroke-width="1" stroke-linecap="square"/>
      </g>
      <g>
        <text transform="matrix(1, 0, 0, 1, 318, 72)">
          <tspan x="-9.919" y="4" font-family="Arial" font-size="17" fill="#000000">F#</tspan>
        </text>
        <text transform="matrix(1, 0, 0, 1, 318, 90)">
          <tspan x="-0.833" y="0" font-family="Arial" font-size="6" fill="#9E9E9E">I</tspan>
        </text>
      </g>
    </g>
    <g>
      <g>
        <path d="M312,96 L348,96 L348,132 L312,132 z" fill="#FFFFFF"/>
        <path d="M312,96 L348,96 L348,132 L312,132 z" fill-opacity="0" stroke="#000000" stroke-width="1" stroke-linecap="square"/>
      </g>
      <g>
        <text transform="matrix(1, 0, 0, 1, 330, 108)">
          <tspan x="-6.612" y="4" font-family="Arial" font-size="17" fill="#000000">G</tspan>
        </text>
        <text transform="matrix(1, 0, 0, 1, 330, 126)">
          <tspan x="-2.167" y="0" font-family="Arial" font-size="6" fill="#9E9E9E">K</tspan>
        </text>
      </g>
    </g>
    <g>
      <g>
        <path d="M324,132 L360,132 L360,168 L324,168 z" fill="#FFFFFF"/>
        <path d="M324,132 L360,132 L360,168 L324,168 z" fill-opacity="0" stroke="#000000" stroke-width="1" stroke-linecap="square"/>
      </g>
      <g>
        <text transform="matrix(1, 0, 0, 1, 342, 144)">
          <tspan x="-11.339" y="4" font-family="Arial" font-size="17" fill="#000000">G#</tspan>
        </text>
        <text transform="matrix(1, 0, 0, 1, 342, 162)">
          <tspan x="-0.833" y="0" font-family="Arial" font-size="6" fill="#9E9E9E">,</tspan>
        </text>
      </g>
    </g>
    <g>
      <g>
        <path d="M336,60 L372,60 L372,96 L336,96 z" fill="#FFFFFF"/>
        <path d="M336,60 L372,60 L372,96 L336,96 z" fill-opacity="0" stroke="#000000" stroke-width="1" stroke-linecap="square"/>
      </g>
      <g>
        <text transform="matrix(1, 0, 0, 1, 354, 72)">
          <tspan x="-6.138" y="4" font-family="Arial" font-size="17" fill="#000000">A</tspan>
        </text>
        <text transform="matrix(1, 0, 0, 1, 354, 90)">
          <tspan x="-2.333" y="0" font-family="Arial" font-size="6" fill="#9E9E9E">O</tspan>
        </text>
      </g>
    </g>
    <g>
      <g>
        <path d="M348,96 L384,96 L384,132 L348,132 z" fill="#FFFFFF"/>
        <path d="M348,96 L384,96 L384,132 L348,132 z" fill-opacity="0" stroke="#000000" stroke-width="1" stroke-linecap="square"/>
      </g>
      <g>
        <text transform="matrix(1, 0, 0, 1, 366, 108)">
          <tspan x="-10.866" y="4" font-family="Arial" font-size="17" fill="#000000">A#</tspan>
        </text>
        <text transform="matrix(1, 0, 0, 1, 366, 126)">
          <tspan x="-1.833" y="0" font-family="Arial" font-size="6" fill="#9E9E9E">L</tspan>
        </text>
      </g>
    </g>
    <g>
      <g>
        <path d="M360,132 L396,132 L396,168 L360,168 z" fill="#FFFFFF"/>
        <path d="M360,132 L396,132 L396,168 L360,168 z" fill-opacity="0" stroke="#000000" stroke-width="1" stroke-linecap="square"/>
      </g>
      <g>
        <text transform="matrix(1, 0, 0, 1, 378, 144)">
          <tspan x="-6.138" y="4" font-family="Arial" font-size="17" fill="#000000">B</tspan>
        </text>
        <text transform="matrix(1, 0, 0, 1, 378, 162)">
          <tspan x="-0.833" y="-0" font-family="Arial" font-size="6" fill="#9E9E9E">.</tspan>
        </text>
      </g>
    </g>
    <g>
      <g>
        <path d="M372,60 L408,60 L408,96 L372,96 z" fill="#FFFFFF"/>
        <path d="M372,60 L408,60 L408,96 L372,96 z" fill-opacity="0" stroke="#000000" stroke-width="1" stroke-linecap="square"/>
      </g>
      <g>
        <text transform="matrix(1, 0, 0, 1, 390, 72)">
          <tspan x="-6.138" y="4" font-family="Arial" font-size="17" fill="#000000">C</tspan>
        </text>
        <text transform="matrix(1, 0, 0, 1, 390, 90)">
          <tspan x="-2.001" y="-0" font-family="Arial" font-size="6" fill="#9E9E9E">P</tspan>
        </text>
      </g>
    </g>
    <g>
      <g>
        <path d="M384,96 L420,96 L420,132 L384,132 z" fill="#FFFFFF"/>
        <path d="M384,96 L420,96 L420,132 L384,132 z" fill-opacity="0" stroke="#000000" stroke-width="1" stroke-linecap="square"/>
      </g>
      <g>
        <text transform="matrix(1, 0, 0, 1, 402, 108)">
          <tspan x="-10.866" y="4" font-family="Arial" font-size="17" fill="#000000">C#</tspan>
        </text>
        <text transform="matrix(1, 0, 0, 1, 402, 126)">
          <tspan x="-0.999" y="0" font-family="Arial" font-size="6" fill="#9E9E9E">;</tspan>
        </text>
      </g>
    </g>
    <g>
      <g>
        <path d="M396,132 L432,132 L432,168 L396,168 z" fill="#FFFFFF"/>
        <path d="M396,132 L432,132 L432,168 L396,168 z" fill-opacity="0" stroke="#000000" stroke-width="1" stroke-linecap="square"/>
      </g>
      <g>
        <text transform="matrix(1, 0, 0, 1, 414, 144)">
          <tspan x="-6.138" y="4" font-family="Arial" font-size="17" fill="#000000">D</tspan>
        </text>
        <text transform="matrix(1, 0, 0, 1, 414, 162)">
          <tspan x="-0.833" y="0" font-family="Arial" font-size="6" fill="#9E9E9E">/</tspan>
        </text>
      </g>
    </g>
    <g>
      <g>
        <path d="M408,60 L444,60 L444,96 L408,96 z" fill="#FFFFFF"/>
        <path d="M408,60 L444,60 L444,96 L408,96 z" fill-opacity="0" stroke="#000000" stroke-width="1" stroke-linecap="square"/>
      </g>
      <g>
        <text transform="matrix(1, 0, 0, 1, 426, 72)">
          <tspan x="-10.866" y="4" font-family="Arial" font-size="17" fill="#000000">D#</tspan>
        </text>
        <text transform="matrix(1, 0, 0, 1, 426, 90)">
          <tspan x="-0.999" y="0" font-family="Arial" font-size="6" fill="#9E9E9E">[</tspan>
        </text>
      </g>
    </g>
    <g>
      <g>
        <path d="M36,24 L72,24 L72,60 L36,60 z" fill="#FFFFFF"/>
        <path d="M36,24 L72,24 L72,60 L36,60 z" fill-opacity="0" stroke="#000000" stroke-width="1" stroke-linecap="square"/>
      </g>
      <g>
        <text transform="matrix(1, 0, 0, 1, 54, 54)">
          <tspan x="-1.668" y="0" font-family="Arial" font-size="6" fill="#9E9E9E">1</tspan>
        </text>
      </g>
    </g>
    <g>
      <g>
        <path d="M72,24 L108,24 L108,60 L72,60 z" fill="#FFFFFF"/>
        <path d="M72,24 L108,24 L108,60 L72,60 z" fill-opacity="0" stroke="#000000" stroke-width="1" stroke-linecap="square"/>
      </g>
      <g>
        <text transform="matrix(1, 0, 0, 1, 90, 54)">
          <tspan x="-1.668" y="0" font-family="Arial" font-size="6" fill="#9E9E9E">2</tspan>
        </text>
      </g>
    </g>
    <g>
      <g>
        <path d="M108,24 L144,24 L144,60 L108,60 z" fill="#FFFFFF"/>
        <path d="M108,24 L144,24 L144,60 L108,60 z" fill-opacity="0" stroke="#000000" stroke-width="1" stroke-linecap="square"/>
      </g>
      <g>
        <text transform="matrix(1, 0, 0, 1, 126, 54)">
          <tspan x="-1.668" y="0" font-family="Arial" font-size="6" fill="#9E9E9E">3</tspan>
        </text>
      </g>
    </g>
    <g>
      <g>
        <path d="M144,24 L180,24 L180,60 L144,60 z" fill="#FFFFFF"/>
        <path d="M144,24 L180,24 L180,60 L144,60 z" fill-opacity="0" stroke="#000000" stroke-width="1" stroke-linecap="square"/>
      </g>
      <g>
        <text transform="matrix(1, 0, 0, 1, 162, 54)">
          <tspan x="-1.668" y="0" font-family="Arial" font-size="6" fill="#9E9E9E">4</tspan>
        </text>
      </g>
    </g>
    <g>
      <path d="M42,31.122 L66,31.122 L66,43.122 L42,43.122 z" fill="#FFFFFF"/>
      <path d="M42,43.122 L42,31.122 L54,31.122 L54,43.122 L66,43.122" fill-opacity="0" stroke="#000000" stroke-width="1" stroke-linecap="square"/>
    </g>
    <g>
      <path d="M114,31.122 L138,31.122 L138,43.122 L114,43.122 z" fill="#FFFFFF"/>
      <path d="M114,43.122 L126,31.122 L126,43.122 L138,31.122 L138,43.122" fill-opacity="0" stroke="#000000" stroke-width="1" stroke-linecap="square"/>
    </g>
    <g>
      <path d="M78,31.122 L102,31.122 L102,43.122 L78,43.122 z" fill="#FFFFFF"/>
      <path d="M78,37.122 C84,50.622 90,37.122 90,37.122 C90,37.122 96,23.622 102,37.122" fill-opacity="0" stroke="#000000" stroke-width="1" stroke-linecap="square"/>
    </g>
    <g>
      <path d="M150,31.122 L174,31.122 L174,43.122 L150,43.122 z" fill="#FFFFFF"/>
      <path d="M150,43.122 L156,31.122 L162,43.122 L168,31.122 L174,43.122" fill-opacity="0" stroke="#000000" stroke-width="1" stroke-linecap="square"/>
    </g>
    <g>
      <path d="M168,180 L204,180 L204,216 L168,216 z" fill="#FFFFFF"/>
      <path d="M168,180 L204,180 L204,216 L168,216 z" fill-opacity="0" stroke="#000000" stroke-width="1" stroke-linecap="square"/>
    </g>
    <g>
      <text transform="matrix(1, 0, 0, 1, 186, 196.5)">
        <tspan x="-9.252" y="-4.5" font-family="Arial" font-size="6" fill="#000000">+ Note </tspan>
        <tspan x="-9.998" y="2.5" font-family="Arial" font-size="6" fill="#000000">Length</tspan>
      </text>
      <text transform="matrix(1, 0, 0, 1, 186, 210)">
        <tspan x="-3.999" y="0" font-family="Arial" font-size="6" fill="#9E9E9E">Up</tspan>
      </text>
    </g>
    <g>
      <path d="M204,180 L240,180 L240,216 L204,216 z" fill="#FFFFFF"/>
      <path d="M204,180 L240,180 L240,216 L204,216 z" fill-opacity="0" stroke="#000000" stroke-width="1" stroke-linecap="square"/>
    </g>
    <g>
      <text transform="matrix(1, 0, 0, 1, 222, 196.5)">
        <tspan x="-8.499" y="-4.5" font-family="Arial" font-size="6" fill="#000000">- Note </tspan>
        <tspan x="-9.998" y="2.5" font-family="Arial" font-size="6" fill="#000000">Length</tspan>
      </text>
      <text transform="matrix(1, 0, 0, 1, 222, 210)">
        <tspan x="-8.165" y="0" font-family="Arial" font-size="6" fill="#9E9E9E">Down</tspan>
      </text>
    </g>
    <g>
      <path d="M288,180 L324,180 L324,216 L288,216 z" fill="#FFFFFF"/>
      <path d="M288,180 L324,180 L324,216 L288,216 z" fill-opacity="0" stroke="#000000" stroke-width="1" stroke-linecap="square"/>
    </g>
    <g>
      <text transform="matrix(1, 0, 0, 1, 306, 196.5)">
        <tspan x="-12.592" y="-4.5" font-family="Arial" font-size="6" fill="#000000">+ Octave </tspan>
        <tspan x="-8.667" y="2.5" font-family="Arial" font-size="6" fill="#000000">Offset</tspan>
      </text>
      <text transform="matrix(1, 0, 0, 1, 306, 210)">
        <tspan x="-7.664" y="-0" font-family="Arial" font-size="6" fill="#9E9E9E">Right</tspan>
      </text>
    </g>
    <g>
      <path d="M252,180 L288,180 L288,216 L252,216 z" fill="#FFFFFF"/>
      <path d="M252,180 L288,180 L288,216 L252,216 z" fill-opacity="0" stroke="#000000" stroke-width="1" stroke-linecap="square"/>
    </g>
    <g>
      <text transform="matrix(1, 0, 0, 1, 270, 198)">
        <tspan x="-11.839" y="-6" font-family="Arial" font-size="6" fill="#000000">- Octave </tspan>
        <tspan x="-8.667" y="1" font-family="Arial" font-size="6" fill="#000000">Offset</tspan>
      </text>
      <text transform="matrix(1, 0, 0, 1, 270, 210)">
        <tspan x="-5.499" y="0" font-family="Arial" font-size="6" fill="#9E9E9E">Left</tspan>
      </text>
    </g>
    <g>
      <g>
        <path d="M396,24 L468,24 L468,60 L396,60 z" fill="#FFFFFF"/>
        <path d="M396,24 L468,24 L468,60 L396,60 z" fill-opacity="0" stroke="#000000" stroke-width="1" stroke-linecap="square"/>
      </g>
      <g>
        <text transform="matrix(1, 0, 0, 1, 432, 37.122)">
          <tspan x="-21.394" y="3" font-family="Arial" font-size="10" fill="#000000">Clear log</tspan>
        </text>
        <text transform="matrix(1, 0, 0, 1, 432, 54)">
          <tspan x="-15.678" y="0" font-family="Arial" font-size="6" fill="#9E9E9E">Backspace</tspan>
        </text>
      </g>
    </g>
  </g>
</svg>